PathFileType	4	(X/Y/Z)	D:\TRACE\v60_Jaco2_6-2-23\BothDRS_Motion1_3-platform.trc
DataRate	CameraRate	NumFrames	NumMarkers	Units	OrigDataRate	OrigDataStartFrame	OrigNumFrames
100.00	100.00	      65	5	mm	100.00	2653	      7073
Frame#	Time	Left_Front			Right_Front			Left_Aft			Right_Aft			Post			
		X1	Y1	Z1	X2	Y2	Z2	X3	Y3	Z3	X4	Y4	Z4	X5	Y5	Z5	

2653	26.520	-846.09991	-14.32057	-643.84393	723.46448	-13.68012	-649.17975	-754.30164	23.76406	490.88943	687.85675	23.53311	500.51859	-60.16022	1272.75745	-1011.45880	
2654	26.530	-846.81836	-14.42929	-643.86188	723.04364	-13.59179	-649.04675	-754.61865	23.73986	490.87363	687.61816	23.78354	500.52829	-60.79263	1272.45081	-1012.16602	
2655	26.540	-847.55487	-14.49116	-643.64410	722.48474	-13.57126	-648.98065	-755.11829	23.87379	490.84421	687.29724	23.86336	500.47415	-61.16872	1272.16821	-1012.52686	
2656	26.550	-847.69019	-14.55562	-643.78595	721.96173	-13.68909	-649.04681	-755.69287	24.10077	490.82263	686.81653	23.81812	500.44446	-61.56390	1272.03308	-1012.78082	
2657	26.560	-848.09955	-14.96578	-643.86920	721.64410	-14.06354	-649.21185	-756.19446	24.14270	490.66812	686.47241	23.79159	500.44495	-61.95948	1271.88232	-1013.13031	
2658	26.570	-848.55145	-15.24979	-644.07074	721.23920	-14.39249	-649.30426	-756.61621	24.15127	490.69098	686.01501	24.06977	500.36432	-62.19514	1271.73718	-1013.30774	
2659	26.580	-848.66254	-15.31883	-643.79919	720.84424	-14.25423	-649.33783	-756.94775	24.09257	490.65518	685.23737	23.97329	500.49127	-62.52430	1271.60864	-1013.75360	
2660	26.590	-848.93762	-15.02953	-643.86066	720.50262	-14.13807	-649.27307	-757.20844	24.12396	490.67834	685.18921	23.93207	500.23877	-62.94974	1271.39075	-1014.09918	
2661	26.600	-849.39594	-14.95561	-644.08893	720.19891	-14.17782	-649.22577	-757.40515	24.21261	490.63663	684.83417	24.13834	500.25302	-63.76354	1271.27112	-1014.44507	
2662	26.610	-849.68170	-15.35614	-643.97327	719.99670	-14.48999	-649.18323	-757.72058	24.39533	490.59979	684.60193	24.13473	500.25348	-64.09607	1271.27173	-1014.41180	
2663	26.620	-849.99139	-15.59279	-644.10974	720.05157	-14.15642	-649.16388	-757.91730	24.50808	490.54471	684.30328	24.23921	500.19138	-64.13982	1271.10083	-1014.33850	
2664	26.630	-850.32513	-15.83331	-644.20636	719.43201	-14.73033	-649.40363	-758.20135	24.50677	490.49667	684.07239	24.31998	500.14334	-64.52669	1270.80798	-1014.30383	
2665	26.640	-850.48297	-15.89846	-644.11615	719.64703	-14.55333	-649.13904	-758.46808	24.52909	490.49371	683.75500	24.30854	500.12579	-64.65393	1270.65369	-1014.30457	
2666	26.650	-850.64911	-15.77312	-643.99152	719.53363	-14.67802	-649.12958	-758.61798	24.70278	490.51764	683.69873	24.43016	500.13138	-64.79206	1270.55383	-1014.38202	
2667	26.660	-850.84412	-15.88048	-643.98962	719.44421	-14.65300	-649.08990	-758.72931	24.91544	490.51328	683.47546	24.57153	500.13614	-64.89529	1270.42102	-1014.57220	
2668	26.670	-850.89417	-16.11125	-644.12555	719.38617	-14.73276	-649.12811	-758.78656	25.00299	490.50009	683.55060	24.67690	499.98166	-64.99523	1270.31726	-1015.00861	
2669	26.680	-850.98572	-16.30382	-644.20367	719.32379	-15.03956	-649.22241	-758.90723	25.03542	490.45129	683.23535	24.74041	499.93188	-64.85279	1270.15649	-1015.73212	
2670	26.690	-850.98785	-16.45348	-644.32550	719.36096	-15.19389	-649.07843	-758.96637	25.08763	490.46768	683.19916	24.73577	499.94501	-64.81094	1269.85889	-1016.17719	
2671	26.700	-851.07605	-16.47001	-644.17700	719.12744	-15.33681	-649.20886	-759.07379	25.10287	490.48456	683.24805	24.74211	499.96069	-65.00763	1269.75830	-1016.52136	
2672	26.710	-851.14026	-16.44966	-644.10938	719.17200	-15.24521	-649.14380	-759.16199	25.30309	490.49530	683.27466	24.85759	499.99219	-64.98852	1269.69006	-1016.87939	
2673	26.720	-851.15332	-16.49426	-644.13989	719.22711	-15.28848	-649.12354	-759.16400	25.40735	490.43274	683.16138	24.99706	499.97458	-64.85329	1269.57080	-1017.13019	
2674	26.730	-851.09454	-16.64564	-644.18915	719.24127	-15.35672	-649.17670	-759.17035	25.42047	490.40692	683.12201	24.97738	499.87637	-64.58626	1269.49121	-1017.62573	
2675	26.740	-851.15265	-16.73978	-644.18970	719.35590	-15.40308	-649.09015	-759.14966	25.42320	490.40244	683.12164	24.95869	499.87946	-64.59760	1269.32813	-1017.61151	
2676	26.750	-851.07666	-16.84894	-644.20386	719.27557	-15.59477	-649.12103	-759.15704	25.37277	490.43506	683.29999	24.97642	499.97260	-64.61385	1269.26318	-1017.46686	
2677	26.760	-851.17560	-16.82651	-644.03149	719.23865	-15.66626	-649.11664	-759.22119	25.43350	490.46039	683.24908	24.99797	499.95343	-64.65425	1269.24060	-1017.70142	
2678	26.770	-851.12677	-16.74194	-644.06213	719.32281	-15.52845	-649.07758	-759.27094	25.53853	490.36261	683.28320	25.04486	499.93234	-64.81134	1269.31665	-1017.06561	
2679	26.780	-851.16217	-16.68211	-644.14160	719.26721	-15.44805	-649.20319	-759.29047	25.73444	490.29721	683.16956	25.10444	499.92444	-64.93369	1269.37158	-1016.87140	
2680	26.790	-851.08319	-16.89746	-644.16003	719.43445	-15.52535	-649.10974	-759.40442	25.93563	490.35968	683.27936	25.03014	499.89371	-65.08782	1269.34570	-1016.60620	
2681	26.800	-850.90106	-17.15781	-644.20056	719.51489	-15.67899	-649.17029	-759.30554	25.85490	490.38727	683.36945	25.12758	499.91559	-65.11818	1269.23975	-1016.37463	
2682	26.810	-850.52710	-17.32117	-644.17761	719.69989	-15.77880	-649.23334	-759.02985	25.77943	490.44086	683.71759	25.18383	499.92587	-64.96010	1269.18750	-1016.17676	
2683	26.820	-850.18927	-17.08230	-644.14746	719.77271	-15.69677	-649.31317	-758.79767	25.84402	490.51492	684.11200	25.22589	499.83667	-64.58570	1269.12988	-1016.09540	
2684	26.830	-849.77118	-17.19688	-643.95801	720.11523	-15.54856	-649.24774	-758.66656	26.18020	490.42035	684.36530	25.25234	499.82501	-64.05766	1269.00562	-1016.39886	
2685	26.840	-849.57336	-17.11262	-644.17639	720.44031	-15.48844	-649.22742	-758.46979	26.23572	490.48633	684.52216	25.23297	499.83521	-63.77410	1268.93982	-1016.60388	
2686	26.850	-849.38892	-17.21102	-644.24579	720.67438	-15.56448	-649.25519	-757.33057	25.33714	490.17920	684.76532	25.23001	499.88297	-63.29503	1268.84851	-1017.29565	
2687	26.860	-849.21887	-17.30461	-644.26678	720.91913	-15.73618	-649.34540	-757.22424	25.35928	490.15671	685.18811	25.26256	499.80267	-62.93797	1268.67017	-1017.56702	
2688	26.870	-849.07306	-17.24823	-644.23468	721.14880	-15.79223	-649.40234	-757.08301	25.40028	490.13214	685.40466	25.29313	499.74893	-62.80068	1268.55322	-1017.95862	
2689	26.880	-848.75134	-17.17534	-644.05322	721.38446	-15.76112	-649.34912	-756.75647	25.59692	490.02844	685.56207	25.27368	499.70779	-62.85892	1268.54651	-1018.43091	
2690	26.890	-848.43341	-17.04214	-644.06982	721.80469	-15.69472	-649.28479	-756.37396	25.61618	490.05777	685.90717	25.28588	499.73087	-62.30400	1268.46484	-1019.00323	
2691	26.900	-848.10608	-17.22416	-644.37134	722.21759	-15.76487	-649.27057	-756.05255	25.55093	490.06332	686.35822	25.21081	499.79715	-61.95548	1268.36560	-1019.18146	
2692	26.910	-847.80072	-17.35007	-644.07233	722.73291	-16.17046	-649.27240	-755.25024	24.80442	490.16275	686.76123	25.27397	499.77145	-61.55785	1268.37390	-1019.01654	
2693	26.920	-847.45569	-17.59475	-644.19354	723.13586	-16.33252	-649.22644	-754.87585	24.76948	490.14316	687.16296	25.39637	499.67542	-61.21441	1268.19971	-1018.90015	
2694	26.930	-846.83319	-17.62051	-644.33325	723.73505	-16.03451	-649.15594	-754.42700	24.94306	490.04858	687.42169	25.42257	499.17761	-60.33300	1268.26404	-1018.34338	
2695	26.940	-846.04913	-17.14439	-644.35333	724.10492	-15.98800	-649.19403	-754.25061	25.23041	490.12231	687.58118	25.47579	499.79568	-59.97610	1268.24182	-1018.25427	
2696	26.950	-845.80640	-16.98839	-644.19379	724.15863	-16.09512	-649.31348	-753.93463	25.55151	490.18219	688.03442	25.35167	499.22336	-59.71959	1268.40125	-1018.15796	
2697	26.960	-845.53601	-17.08646	-644.28259	724.47412	-16.00110	-649.40540	-753.49493	25.75092	490.14862	688.80072	25.36597	499.31500	-59.31113	1268.47009	-1017.92310	
2698	26.970	-845.02625	-17.32811	-644.29376	725.23059	-15.91416	-649.44757	-752.93707	25.58177	490.10162	689.26038	25.15053	499.58783	-58.85135	1268.53516	-1017.58246	
2699	26.980	-844.72491	-17.28177	-644.26929	725.62170	-15.92680	-649.53418	-752.47070	25.49488	490.13513	689.20343	24.89034	499.31897	-58.35764	1268.70215	-1017.13422	
2700	26.990	-844.20837	-17.07315	-644.22131	726.10822	-16.04000	-649.38000	-752.09448	25.39495	490.13416	689.11560	24.41804	499.11661	-58.10350	1268.79431	-1017.17273	
2701	27.000	-843.55322	-16.71651	-644.15100	726.43933	-15.62929	-649.33936	-751.75226	25.38790	490.21509	689.30829	24.27259	498.87793	-57.35998	1269.00671	-1017.04498	
2702	27.010	-843.12292	-16.61731	-644.14966	727.03876	-15.33756	-649.18329	-751.32416	25.39782	490.29562	692.43188	25.93086	501.15607	-56.94588	1269.04724	-1016.98920	
2703	27.020	-842.50287	-16.70635	-644.12488	727.67389	-15.28378	-649.12250	-750.65033	25.32276	490.39688	692.73505	25.86760	500.86905	-56.70496	1269.25916	-1016.93549	
2704	27.030	-842.09686	-16.67609	-644.21558	728.06134	-15.34898	-649.25018	-750.07294	25.22788	490.38763	692.84851	25.46627	500.26376	-56.32476	1269.32959	-1016.76050	
2705	27.040	-841.58960	-16.61613	-644.23590	728.72626	-15.38778	-649.25000	-749.67603	25.13185	490.40604	693.24768	25.34678	500.17621	-55.55246	1269.39966	-1016.33026	
2706	27.050	-841.02130	-16.47691	-644.19885	729.31799	-15.42007	-649.12683	-749.19873	25.13132	490.48032	693.08429	24.80554	499.42334	-54.97608	1269.44580	-1016.03802	
2707	27.060	-840.66498	-16.38027	-644.11853	729.93195	-15.49219	-649.09711	-748.77551	25.18191	490.56628	693.62018	24.88253	499.50412	-54.59296	1269.59180	-1016.05359	
2708	27.070	-839.85815	-16.33051	-644.15546	730.33868	-15.22476	-649.21051	-748.08826	25.29990	490.59476	694.64319	25.03963	500.01730	-54.02637	1269.82861	-1016.13696	
2709	27.080	-839.04724	-16.07609	-644.48944	730.72284	-15.16379	-649.42920	-747.29681	25.09281	490.32919	694.96942	24.83242	500.01144	-52.88326	1270.07971	-1016.17285	
2710	27.090	-838.58130	-16.08033	-644.38953	731.51074	-15.02752	-649.36603	-746.97491	25.27029	490.39407	695.58557	24.69365	499.89352	-52.57790	1270.03394	-1016.03088	
2711	27.100	-838.09149	-16.04412	-644.38501	732.28137	-14.96159	-649.41522	-746.55933	25.16320	490.52942	696.47742	24.74992	499.92108	-52.16726	1270.14233	-1015.97510	
2712	27.110	-837.55511	-15.76878	-644.28247	732.89166	-14.79908	-649.27075	-746.11401	25.22880	490.50491	697.16577	24.82474	500.06183	-51.51504	1270.43872	-1015.88403	
2713	27.120	-836.89758	-15.46598	-644.15540	733.34875	-14.55626	-649.03717	-744.94037	24.52208	490.32584	697.63947	24.55309	500.17572	-50.84790	1270.61426	-1015.54681	
2714	27.130	-836.00348	-15.41017	-644.05420	733.98212	-14.30445	-649.01550	-744.03235	24.55051	490.39590	698.11859	24.44007	500.17676	-49.73047	1270.78271	-1015.18738	
2715	27.140	-835.28351	-15.49016	-644.06610	734.70190	-13.98900	-649.10651	-743.05469	23.96824	490.44778	698.66266	24.29699	500.26224	-49.17775	1271.10815	-1014.85870	
2716	27.150	-834.74847	-15.59145	-644.15845	735.36902	-14.01351	-649.28375	-742.64752	23.97846	490.46704	699.61371	24.16382	500.12253	-48.68177	1271.25244	-1014.54156	
2717	27.160	-834.00488	-15.09359	-644.32349	736.12433	-13.99010	-649.21136	-741.97748	23.91307	490.39481	700.16284	23.93836	500.15390	-47.92114	1271.53552	-1013.75458	
